#!OML:ASF F:\VICON\USERDATA\INSTALL\rory7\rory7.ASF
:FULLY-SPECIFIED
:DEGREES
414
root -0.0500783 18.8488 4.09562 -2.9186 -4.67102 0.28975
lowerback 6.95372 1.95763 -0.803574
upperback 0.465891 2.49466 -1.34701
thorax -3.38931 1.24211 -1.18263
lowerneck -5.08046 -4.68397 -5.37086
upperneck -0.133071 -6.06971 7.52608
head 1.2843 -2.93746 3.19601
rclavicle -2.41896e-014 -8.74653e-015
rhumerus 25.8596 16.7017 -47.7995
rradius 130.937
rwrist -26.3275
rhand -34.0922 -5.36451
rfingers 7.12502
rthumb -7.26855 -35.2197
lclavicle -2.41896e-014 -8.74653e-015
lhumerus -33.7971 13.2315 71.1969
lradius 21.3951
lwrist -9.77674
lhand -23.7459 21.4621
lfingers 7.12502
lthumb 2.72278 51.4245
rfemur 0 0 0
rtibia 0
rfoot 0 0
rtoes 0
lfemur 5.91241 -10.3443 -19.0105
ltibia 10.5347
lfoot -13.0756 21.6447
ltoes -4.59915
415
root -0.0487522 18.8483 4.09849 -2.92105 -4.63079 0.397906
lowerback 6.88598 1.95443 -0.90715
upperback 0.495655 2.48345 -1.36237
thorax -3.3245 1.23812 -1.13599
lowerneck -5.05056 -4.65553 -5.46528
upperneck 0.267229 -6.05094 7.64071
head 1.41651 -2.92426 3.25243
rclavicle 4.77829e-014 -1.90833e-014
rhumerus 25.29 17.2922 -48.0183
rradius 131.075
rwrist -26.9546
rhand -33.9732 -5.87667
rfingers 7.12502
rthumb -7.15369 -35.7358
lclavicle 4.77829e-014 -1.90833e-014
lhumerus -33.7037 13.3562 71.1693
lradius 21.2452
lwrist -9.78022
lhand -23.8849 21.3924
lfingers 7.12502
lthumb 2.58849 51.3564
rfemur 0 0 0
rtibia 0
rfoot 0 0
rtoes 0
lfemur 5.94623 -10.3617 -19.1399
ltibia 10.486
lfoot -13.0779 21.6235
ltoes -4.60845
416
root -0.0485273 18.848 4.09935 -2.90751 -4.5965 0.415817
lowerback 6.86637 1.95485 -0.933573
upperback 0.475665 2.48206 -1.36212
thorax -3.33536 1.23781 -1.12056
lowerneck -5.24025 -4.64651 -5.6446
upperneck 0.993973 -6.06437 7.83144
head 1.70502 -2.91921 3.34529
rclavicle 1.40392e-014 -4.77083e-015
rhumerus 24.5443 17.8508 -48.2437
rradius 131.302
rwrist -27.7395
rhand -34.0778 -5.92787
rfingers 7.12502
rthumb -7.25467 -35.7835
lclavicle 1.40392e-014 -4.77083e-015
lhumerus -33.751 13.3543 71.1226
lradius 21.2393
lwrist -9.80948
lhand -23.7982 21.534
lfingers 7.12502
lthumb 2.67224 51.497
rfemur 0 0 0
rtibia 0
rfoot 0 0
rtoes 0
lfemur 5.9678 -10.3714 -19.1558
ltibia 10.4267
lfoot -13.085 21.5812
ltoes -4.55959
417
root -0.0479388 18.8474 4.09829 -2.89048 -4.56193 0.430692
lowerback 6.88162 1.95327 -0.940739
upperback 0.453938 2.47839 -1.3737
thorax -3.36621 1.23595 -1.12932
lowerneck -5.63685 -4.6515 -5.81995
upperneck 1.8796 -6.09789 8.0128
head 2.0881 -2.91845 3.43168
rclavicle -5.889e-015 3.97569e-016
rhumerus 23.7473 18.3915 -48.5381
rradius 131.484
rwrist -28.6118
rhand -34.1452 -5.86727
rfingers 7.12502
rthumb -7.31969 -35.7207
lclavicle -5.889e-015 3.97569e-016
lhumerus -33.8037 13.1612 71.156
lradius 21.3932
lwrist -9.62332
lhand -23.6518 21.8604
lfingers 7.12502
lthumb 2.81365 51.8216
rfemur 0 0 0
rtibia 0
rfoot 0 0
rtoes 0
lfemur 5.95157 -10.3721 -19.1636
ltibia 10.3999
lfoot -13.0726 21.5375
ltoes -4.48872
418
root -0.0471615 18.8468 4.09853 -2.89369 -4.52976 0.438891
lowerback 6.87851 1.94453 -0.935924
upperback 0.456279 2.46769 -1.36072
thorax -3.36253 1.23066 -1.11741
lowerneck -5.76583 -4.5963 -5.98836
upperneck 2.47478 -6.04628 8.15973
head 2.32062 -2.88374 3.51607
rclavicle 1.18525e-014 1.39149e-014
rhumerus 23.0145 18.9219 -48.8436
rradius 131.609
rwrist -29.4796
rhand -33.9628 -6.24622
rfingers 7.12502
rthumb -7.14368 -36.1057
lclavicle 1.18525e-014 1.39149e-014
lhumerus -33.8819 12.9632 71.2637
lradius 21.6164
lwrist -9.29387
lhand -23.6474 22.189
lfingers 7.12502
lthumb 2.81785 52.1502
rfemur 0 0 0
rtibia 0
rfoot 0 0
rtoes 0
lfemur 5.94778 -10.3606 -19.1684
ltibia 10.4024
lfoot -13.0214 21.4939
ltoes -4.62655
